<svg width="1094" height="1076" viewBox="0 0 1094 1076" fill="none" xmlns="http://www.w3.org/2000/svg">
<path d="M852.477 134.714C799.749 121.034 733.365 127.14 660.447 152.377C587.529 177.614 510.828 221.03 438.572 277.968C366.317 334.905 301.234 403.215 250.306 475.569C199.378 547.924 164.527 621.592 149.49 688.67C134.454 755.749 139.801 813.707 164.957 856.327C190.112 898.947 234.128 924.62 292.282 930.592C350.435 936.564 420.532 922.61 495.052 890.226C569.573 857.843 645.704 808.252 715.279 746.774L580.284 562.746C569.71 572.09 558.14 579.626 546.814 584.548C535.489 589.469 524.836 591.59 515.998 590.683C507.16 589.775 500.47 585.873 496.647 579.396C492.824 572.919 492.012 564.11 494.297 553.916C496.582 543.722 501.879 532.526 509.619 521.53C517.358 510.533 527.249 500.152 538.231 491.499C549.212 482.846 560.868 476.247 571.95 472.412C583.032 468.576 593.121 467.648 601.135 469.728L852.477 134.714Z" fill="#A9C294"/>
</svg>
